<?xml version="1.0" encoding="utf-8"?>
<svg version="1.1" id="Layer_1" xmlns="http://www.w3.org/2000/svg" xmlns:xlink="http://www.w3.org/1999/xlink" x="0px" y="0px"
   viewBox="0 0 420 420" style="enable-background:new 0 0 420 420;" xml:space="preserve">
<style type="text/css">
  .st0{fill:#0EBE7F;}
</style>
<g>
  <g>
    <path class="st0" d="M299.27,159.2c-12.49,6.54-20.69,10.84-26.05,15.31c-14.8-43.9-56.3-75.54-105.19-75.54
      C106.72,98.97,57,148.69,57,210c0,3.08,0.13,6.14,0.38,9.16c2.23,27.34,14.37,51.88,32.83,70.03c0.17-1.62,0.25-2.76,0.55-3.81
      c1.27-4.39,2.42-8.83,4.08-13.08c3.19-8.16,4.6-15.9,4.04-24.05C92.58,236.91,89,223.87,89,210c0-43.64,35.39-79.03,79.03-79.03
      s79.03,35.39,79.03,79.03c0,43.64-35.39,79.03-79.03,79.03c-13.43,0-26.07-3.34-37.15-9.26c-1.44,0-2.85,0.16-4.14,0.5
      c-9.88,2.52-19.54,5.89-29.31,8.84c-1.8,0.55-3.68,0.84-6,1.27c19.92,18.99,46.91,30.66,76.6,30.66
      c30.67,0,58.43-12.44,78.51-32.55c13.99-13.98,24.26-31.68,29.19-51.48c15.57,9.26,32,17.2,49.81,26.56V145.64
      C315.43,150.85,307.31,154.98,299.27,159.2z"/>
  </g>
</g>
</svg>